<svg xmlns="http://www.w3.org/2000/svg" width="25.156" height="27.868" viewBox="0 0 25.156 27.868"><g transform="translate(-24.916)"><g transform="translate(24.916)"><path d="M134.069,36.337h-.026a1.126,1.126,0,0,0-1.125,1.125V39.27a1.126,1.126,0,0,0,1.125,1.125h.026a1.126,1.126,0,0,0,1.125-1.125V37.462A1.126,1.126,0,0,0,134.069,36.337Zm.309,2.933a.309.309,0,0,1-.309.309h-.026a.309.309,0,0,1-.309-.309V37.462a.309.309,0,0,1,.309-.309h.026a.309.309,0,0,1,.309.309Z" transform="translate(-127.042 -34.36)"/><path d="M193.955,244.27a.408.408,0,0,0-.408-.408h-6.223a.408.408,0,1,0,0,.816h6.223A.408.408,0,0,0,193.955,244.27Z" transform="translate(-178.102 -230.593)"/><path d="M51.4,66.971a.5.5,0,0,1,.054-.227.408.408,0,0,0-.728-.37,1.321,1.321,0,0,0,.017,1.226.408.408,0,1,0,.717-.39A.5.5,0,0,1,51.4,66.971Z" transform="translate(-49.186 -62.551)"/><path d="M25.908,49.111a.408.408,0,0,0-.56.138,3,3,0,0,0,0,3.1.408.408,0,0,0,.7-.423,2.181,2.181,0,0,1,0-2.253A.408.408,0,0,0,25.908,49.111Z" transform="translate(-24.916 -46.383)"/><path d="M107.231,8.239a4.12,4.12,0,1,0-4.12-4.12v6.944h-1.2V4.12a4.116,4.116,0,1,0-2.869,3.926v.338a.408.408,0,1,0,.816,0V7.15a1.979,1.979,0,0,0-.3-1.044l-.127-.2a.408.408,0,0,0-.694.43l.127.2a1.164,1.164,0,0,1,.175.614v.026a3.266,3.266,0,0,1-1.25.247,3.3,3.3,0,1,1,3.3-3.3v6.944H99.863v-.757a.408.408,0,0,0-.816,0v.757H94.523a.73.73,0,0,0-.729.729V24.1a3.771,3.771,0,0,0,3.766,3.766h5.579a.408.408,0,1,0,0-.816H97.56a2.953,2.953,0,0,1-2.95-2.95V11.879h15.808V24.1a2.954,2.954,0,0,1-2.95,2.95h-2.41a.408.408,0,0,0,0,.816h2.41a3.771,3.771,0,0,0,3.766-3.766V11.793a.73.73,0,0,0-.729-.729h-4.524V8.046a4.088,4.088,0,0,0,1.25.193Zm-3.3,2.824V4.12a3.3,3.3,0,1,1,3.3,3.3,3.266,3.266,0,0,1-1.25-.247V7.15a1.164,1.164,0,0,1,.175-.614l.127-.2a.408.408,0,0,0-.694-.43l-.127.2a1.98,1.98,0,0,0-.3,1.044v3.913h-1.237Z" transform="translate(-89.936)"/><path d="M338.559,40.4h.026a1.126,1.126,0,0,0,1.125-1.125V37.462a1.126,1.126,0,0,0-1.125-1.125h-.026a1.126,1.126,0,0,0-1.125,1.125V39.27A1.126,1.126,0,0,0,338.559,40.4Zm-.309-2.933a.309.309,0,0,1,.309-.309h.026a.309.309,0,0,1,.309.309V39.27a.309.309,0,0,1-.309.309h-.026a.309.309,0,0,1-.309-.309Z" transform="translate(-320.43 -34.36)"/><path d="M444.806,66.195a.408.408,0,0,0-.179.549.5.5,0,0,1-.006.467.408.408,0,1,0,.717.39,1.321,1.321,0,0,0,.017-1.226A.408.408,0,0,0,444.806,66.195Z" transform="translate(-421.738 -62.551)"/><path d="M466.172,49.249a.408.408,0,0,0-.7.423,2.181,2.181,0,0,1,0,2.253.408.408,0,1,0,.7.423,3,3,0,0,0,0-3.1Z" transform="translate(-441.447 -46.383)"/></g></g></svg>