<svg xmlns="http://www.w3.org/2000/svg" width="20.868" height="20.868" viewBox="0 0 20.868 20.868"><path d="M10.434,0A10.434,10.434,0,1,0,20.868,10.434,10.446,10.446,0,0,0,10.434,0Zm0,20.172a9.738,9.738,0,1,1,9.738-9.738A9.749,9.749,0,0,1,10.434,20.172Z"/><g transform="translate(16.694 2.773)"><path d="M413.01,78.838c-1.6-1-2.715-4.006-2.715-7.31a14.1,14.1,0,0,1,.326-3.064.348.348,0,1,0-.679-.151,14.816,14.816,0,0,0-.342,3.215c0,3.587,1.223,6.762,3.042,7.9a.348.348,0,1,0,.369-.59Z" transform="translate(-409.6 -68.041)"/></g><g transform="translate(0 0.374)"><path d="M7.843,9.207a.35.35,0,0,0-.224-.012,10.434,10.434,0,1,0,7.738,19.246.349.349,0,0,0,.177-.238l.112-.56.007-.046A20.9,20.9,0,0,0,16,24.284C16,17.229,12.721,11.17,7.843,9.207Zm7.124,18.281-.082.416A9.739,9.739,0,1,1,7.693,9.9C12.25,11.8,15.3,17.564,15.3,24.284A20.35,20.35,0,0,1,14.967,27.488Z" transform="translate(0 -9.182)"/></g><g transform="translate(5.564 17.042)"><path d="M139.073,419.2a9.033,9.033,0,0,1-2.009-1.006.348.348,0,1,0-.379.583,9.709,9.709,0,0,0,2.164,1.081.353.353,0,0,0,.112.019.348.348,0,0,0,.112-.677Z" transform="translate(-136.526 -418.135)"/></g><g transform="translate(2.782 14.259)"><path d="M69.926,351.374c-.081-.1-.17-.208-.263-.317a5.976,5.976,0,0,1-.741-1.013.348.348,0,0,0-.621.313,6.446,6.446,0,0,0,.83,1.148c.089.105.175.208.252.3a.348.348,0,1,0,.543-.435Z" transform="translate(-68.264 -349.852)"/></g><g transform="translate(0.623 7.446)"><path d="M34.825,182.7c-10.182-.081-16.187,3.332-19.433,6.221a.348.348,0,1,0,.462.52c3.155-2.808,9.011-6.127,18.964-6.045h0a.348.348,0,0,0,0-.7Z" transform="translate(-15.276 -182.698)"/></g><g transform="translate(2.484 3.468)"><path d="M61.633,85.1c-.106,0-.211,0-.317-.01a.348.348,0,0,0-.033.695c.116.006.233.01.35.01,4.6,0,8.347,4.447,8.347,9.912a11.014,11.014,0,0,1-1.709,6.23.348.348,0,0,0,.575.392,11.7,11.7,0,0,0,1.829-6.621C70.675,89.861,66.619,85.1,61.633,85.1Z" transform="translate(-60.952 -85.092)"/></g></svg>