<svg xmlns="http://www.w3.org/2000/svg" width="23.625" height="15.188" viewBox="0 0 23.625 15.188"><path d="M-11.812-17.719V-2.531H11.813V-17.719Zm1.688,1.688h20.25V-4.219h-20.25Zm1.688,1.688v1.688H0v-1.687Zm13.5,0v.9a2.087,2.087,0,0,0-1.2.672A1.846,1.846,0,0,0,3.375-11.5a1.66,1.66,0,0,0,.25.883,1.631,1.631,0,0,0,.672.62L6.75-8.754a.305.305,0,0,1-.092.224.305.305,0,0,1-.224.092H5.379a.305.305,0,0,1-.224-.092.305.305,0,0,1-.092-.224v-.527H3.375v.527a1.846,1.846,0,0,0,.488,1.279,2.087,2.087,0,0,0,1.2.672v.9H6.75v-.9a2.087,2.087,0,0,0,1.2-.672,1.846,1.846,0,0,0,.488-1.279,1.66,1.66,0,0,0-.25-.883,1.631,1.631,0,0,0-.672-.62L5.063-11.5a.305.305,0,0,1,.092-.224.305.305,0,0,1,.224-.092H6.434a.305.305,0,0,1,.224.092.305.305,0,0,1,.092.224v.527H8.438V-11.5a1.846,1.846,0,0,0-.488-1.279,2.087,2.087,0,0,0-1.2-.672v-.9Zm-13.5,2.531v1.688h5.906v-1.687Zm2.109,2.531a1.476,1.476,0,0,0-1.107.554,3.881,3.881,0,0,0-.554.87,4.761,4.761,0,0,0-.448,1.951H-6.75A2.723,2.723,0,0,1-6.658-6.5a3.763,3.763,0,0,1,.224-.672.415.415,0,0,1,.105-.158l.053-.079.264.4q.211.343.343.527l.053.053a1.144,1.144,0,0,0,.316.369,1.075,1.075,0,0,0,.633.185,1.215,1.215,0,0,0,.475-.079,1.616,1.616,0,0,0,.29-.158l.053-.053a4.018,4.018,0,0,0,.316-.29l.29-.237a2.443,2.443,0,0,0,.58.29A6.545,6.545,0,0,0,0-5.906V-7.594a4.987,4.987,0,0,1-1.978-.343l-.316-.158a2.281,2.281,0,0,0-.448-.237,1.761,1.761,0,0,0-.606-.105,1.3,1.3,0,0,0-.5.079.97.97,0,0,0-.237.185l-.079.053q-.079.079-.237.211l-.105.105-.132-.211a4.011,4.011,0,0,0-.554-.738A1.587,1.587,0,0,0-6.328-9.281Z" transform="translate(11.813 17.719)" fill="#fe5600"/></svg>