<svg xmlns="http://www.w3.org/2000/svg" width="20.823" height="22.173" viewBox="0 0 20.823 22.173"><g transform="translate(-0.499 -0.001)"><path d="M74.563,76.089a1.663,1.663,0,0,0,1.179-.487.394.394,0,0,0-.557-.557.882.882,0,0,1-1.244,0,.394.394,0,1,0-.557.557A1.662,1.662,0,0,0,74.563,76.089Zm0,0" transform="translate(-69.618 -71.683)"/><path d="M131.107,374.866a.394.394,0,0,0-.714.334l1.089,2.326a.394.394,0,0,0,.357.227.385.385,0,0,0,.167-.037.394.394,0,0,0,.19-.524Zm0,0" transform="translate(-124.233 -358.414)"/><path d="M341.532,374.672a.393.393,0,0,0-.524.189l-1.089,2.326a.394.394,0,1,0,.713.334l1.089-2.326A.393.393,0,0,0,341.532,374.672Zm0,0" transform="translate(-324.686 -358.409)"/><path d="M282.033,393.7a.4.4,0,0,0-.45.328l-.363,2.326a.394.394,0,1,0,.779.122l.363-2.326A.394.394,0,0,0,282.033,393.7Zm0,0" transform="translate(-268.559 -376.648)"/><path d="M206.122,393.7a.394.394,0,0,0-.329.45l.363,2.326a.394.394,0,0,0,.779-.122l-.363-2.326A.4.4,0,0,0,206.122,393.7Zm0,0" transform="translate(-196.399 -376.648)"/><path d="M248.1,152.286a16.526,16.526,0,0,0,4.693-.631.394.394,0,1,0-.228-.754,15.732,15.732,0,0,1-4.465.6.394.394,0,1,0,0,.788Zm0,0" transform="translate(-236.499 -144.349)"/><path d="M85.158,235.045a10.343,10.343,0,0,0,1.253.551.4.4,0,0,0,.135.024.394.394,0,0,0,.135-.764,9.712,9.712,0,0,1-1.158-.509.394.394,0,1,0-.365.7Zm0,0" transform="translate(-80.79 -224.154)"/><path d="M191.586,264.842a19.626,19.626,0,0,0,2.4.146,20.331,20.331,0,0,0,2.617-.171.394.394,0,1,0-.1-.781,19.233,19.233,0,0,1-4.815.024.394.394,0,1,0-.1.782Zm0,0" transform="translate(-182.48 -252.597)"/><path d="M355.289,235.6a.395.395,0,0,0,.484.277,11.458,11.458,0,0,0,2.319-.889.394.394,0,0,0-.368-.7,10.649,10.649,0,0,1-2.159.827A.394.394,0,0,0,355.289,235.6Zm0,0" transform="translate(-339.412 -224.103)"/><path d="M21.322,12.339a3.329,3.329,0,0,0-1.428-2.545,2.456,2.456,0,0,0,.041-.444c0-1.159-.805-2.24-2.274-3.059-.035-.8-.277-3.384-1.929-4.89a4.466,4.466,0,0,0-3.6-1.062.394.394,0,0,0-.3.6c.249.406.686,1.385.445,1.82-.1.188-.366.285-.78.289a12.651,12.651,0,0,0-2.9.359,3.742,3.742,0,0,0-.4-.481A4.153,4.153,0,0,0,4.869,1.676a3.009,3.009,0,0,0-.8-.971A4.06,4.06,0,0,0,.833.079.394.394,0,1,0,.953.858a3.334,3.334,0,0,1,2.62.46,2.168,2.168,0,0,1,.491.545,3.034,3.034,0,0,0-1.107.7l-.36.36a3.735,3.735,0,0,0,.36,5.239,3.718,3.718,0,0,0,.295.263,2.424,2.424,0,0,0-.143,1.366A3.33,3.33,0,0,0,1.68,12.339a2.916,2.916,0,0,0,.763,1.9L3.931,17.9l.019.04c1.254,2.306,2.312,2.893,4.6,3.771a9.04,9.04,0,0,0,3.048.46,8.965,8.965,0,0,0,3.042-.46c2.295-.887,3.352-1.473,4.581-3.734l1.911-4.687h0A2.592,2.592,0,0,0,21.322,12.339ZM3.153,3.482l.36-.36a2.273,2.273,0,0,1,.869-.535,2.291,2.291,0,0,1,.058.279.394.394,0,0,0,.392.359l.033,0a.394.394,0,0,0,.36-.425,2.575,2.575,0,0,0-.063-.353c.029,0,.056-.007.085-.007A3.434,3.434,0,0,1,7.638,3.482a2.92,2.92,0,0,1,.441.569s0,0,0,0A2.909,2.909,0,0,1,8.485,5.4c0,.018,0,.037,0,.056a2.938,2.938,0,0,1-.018.431c0,.015,0,.031-.007.046a2.906,2.906,0,0,1-.251.851l-.023.048a2.876,2.876,0,0,1-.221.375l-.037.05a2.974,2.974,0,0,1-.293.347,2.938,2.938,0,0,1-.372.312l-.031.023a2.918,2.918,0,0,1-.411.237l-.022.01a2.939,2.939,0,0,1-1.408.264l-.034,0A2.947,2.947,0,0,1,4.9,8.38l-.042-.011a2.846,2.846,0,0,1-.445-.15L4.4,8.211a2.9,2.9,0,0,1-.436-.238l0,0a2.913,2.913,0,0,1-.444-.365A2.953,2.953,0,0,1,3.153,3.482Zm.631,6.785a.4.4,0,0,0,.144-.428,1.734,1.734,0,0,1-.073-.489,1.639,1.639,0,0,1,.076-.485c.029.014.058.026.087.039a3.65,3.65,0,0,0,.652.23c.034.009.068.018.1.026.066.015.132.026.2.037l.118.017c.066.009.132.017.2.021.037,0,.075,0,.112.006.058,0,.116.009.175.009A3.748,3.748,0,0,0,6.134,9.2L6.181,9.2q.129-.021.255-.051l.024-.006a3.65,3.65,0,0,0,.778-.285l.015-.007c.065-.033.127-.069.19-.105.035-.02.07-.041.1-.063.05-.032.1-.065.149-.1s.1-.072.146-.109.073-.055.107-.084c.085-.07.167-.144.246-.223a3.712,3.712,0,0,0,.331-.385c.021-.028.042-.055.062-.084a3.652,3.652,0,0,0,.467-.886c.009-.024.017-.047.026-.071a3.7,3.7,0,0,0,.189-.968c0-.035,0-.07.005-.106s.006-.08.006-.121a3.73,3.73,0,0,0-.111-.888c0-.011-.005-.021-.008-.032a3.634,3.634,0,0,0-.166-.509,12.127,12.127,0,0,1,2.511-.28,1.543,1.543,0,0,0,1.462-.7A2.451,2.451,0,0,0,12.8,1.1a3.512,3.512,0,0,1,2.4.884c1.673,1.522,1.68,4.516,1.68,4.546a.4.4,0,0,0,.212.352c1.326.69,2.056,1.567,2.056,2.471a1.737,1.737,0,0,1-.072.489.394.394,0,0,0,.144.428,2.8,2.8,0,0,1,1.316,2.072,1.738,1.738,0,0,1-.056.434c-.008,0-.017,0-.025-.008a1.652,1.652,0,0,0-.317-.11l-.041-.007a1.823,1.823,0,0,0-.335-.038l-.027,0a2.209,2.209,0,0,0-.361.031l-.073.012a2.841,2.841,0,0,0-.371.1l-.07.026a3.764,3.764,0,0,0-.382.162l-.028.013c-.135.067-.272.148-.41.235l-.084.053q-.2.133-.412.294l-.08.064c-.146.116-.292.239-.441.375-1.048-.712-2.508-.24-3.6.7a2.965,2.965,0,0,0-3.6,0c-.083-.071-.168-.138-.254-.2L9.5,14.414q-.1-.07-.2-.135l-.08-.052c-.09-.056-.18-.11-.273-.16h0c-.093-.05-.187-.095-.282-.137l-.081-.034c-.071-.03-.143-.058-.215-.083l-.082-.028c-.1-.031-.192-.06-.288-.082H8c-.1-.022-.193-.039-.289-.051l-.077-.008c-.072-.007-.145-.012-.217-.013-.016,0-.033,0-.049,0l-.03,0a2.217,2.217,0,0,0-.552.075l-.072.023a1.861,1.861,0,0,0-.2.074c-.024.011-.048.02-.072.032a2,2,0,0,0-.247.14q-.14-.128-.279-.244l-.089-.072c-.063-.051-.126-.1-.188-.149l-.1-.075c-.057-.042-.114-.083-.171-.122l-.107-.071c-.054-.035-.108-.07-.162-.1l-.108-.063q-.08-.046-.158-.086l-.106-.054c-.053-.026-.106-.049-.158-.072l-.1-.043c-.055-.022-.109-.041-.163-.06l-.089-.031c-.062-.019-.123-.035-.184-.05l-.06-.016c-.081-.017-.16-.031-.238-.04l-.047,0c-.061-.006-.123-.01-.183-.011l-.08,0c-.048,0-.1,0-.143.008l-.086.012c-.043.007-.086.014-.128.024l-.085.023c-.041.012-.081.025-.12.039l-.08.033c-.04.017-.079.036-.117.057s-.049.026-.073.04l-.039.021a1.787,1.787,0,0,1-.081-.527A2.8,2.8,0,0,1,3.784,10.267Zm14.738,7.355c-1.109,2.033-1.978,2.512-4.163,3.356a9.679,9.679,0,0,1-5.524,0c-2.181-.836-3.049-1.316-4.182-3.393l-1.5-3.7h0L3,13.516c.973-.549,2.566.937,2.894,1.26l.277.272.276-.272c.872-.858,2.329-.048,3.1.707l.278.273.277-.275a2.171,2.171,0,0,1,3.055,0l.278.276.278-.276c.7-.7,1.983-1.439,2.852-.869a1.287,1.287,0,0,1,.2.162l.277.276.278-.275h0c.043-.043.108-.106.19-.181l.024-.022.106-.095.055-.048.1-.083.076-.063.095-.076c.03-.024.062-.048.094-.072l.094-.071.106-.076.1-.065.114-.074.1-.061c.039-.024.079-.047.119-.069l.1-.055c.04-.02.08-.041.12-.059s.072-.032.108-.047.079-.033.118-.048.075-.025.112-.036.075-.024.113-.033.08-.016.121-.023.068-.013.1-.017a1.262,1.262,0,0,1,.138,0c.026,0,.052,0,.078,0a.935.935,0,0,1,.4.118Zm0,0" transform="translate(0 0)"/></g></svg>