<svg xmlns="http://www.w3.org/2000/svg" width="24.086" height="15.82" viewBox="0 0 24.086 15.82"><g transform="translate(0 -55.109)"><g transform="translate(0 55.109)"><g transform="translate(0)"><path d="M24.073,66.05a22.483,22.483,0,0,0-.66-4.35,16.7,16.7,0,0,0-1.35-3.66c-2.1-3.69-4.38-3.12-7.11-2.4a19.541,19.541,0,0,1-2.76.54h-.3a19.542,19.542,0,0,1-2.76-.54c-2.73-.69-5.01-1.29-7.11,2.43a15.294,15.294,0,0,0-1.35,3.66,22.483,22.483,0,0,0-.66,4.35,8.174,8.174,0,0,0,.42,3.42,2.274,2.274,0,0,0,1.44,1.35,2.933,2.933,0,0,0,1.92-.21,14.1,14.1,0,0,0,3.84-2.73,6.623,6.623,0,0,1,4.41-1.35,6.623,6.623,0,0,1,4.41,1.35,14.1,14.1,0,0,0,3.84,2.73,3.138,3.138,0,0,0,1.92.21,2.242,2.242,0,0,0,1.44-1.38A8.021,8.021,0,0,0,24.073,66.05Zm-1.44,3a1.19,1.19,0,0,1-.72.75,2.072,2.072,0,0,1-1.23-.15,12.235,12.235,0,0,1-3.48-2.49,7.491,7.491,0,0,0-5.16-1.71,7.911,7.911,0,0,0-5.19,1.65,12.466,12.466,0,0,1-3.48,2.49,1.861,1.861,0,0,1-1.23.15,1.19,1.19,0,0,1-.72-.75,7.094,7.094,0,0,1-.3-2.88,20.694,20.694,0,0,1,.63-4.14,14.315,14.315,0,0,1,1.26-3.39c1.65-2.97,3.57-2.49,5.85-1.89a17.6,17.6,0,0,0,2.94.57h.45a17.381,17.381,0,0,0,2.97-.57c2.28-.57,4.2-1.08,5.85,1.89a13.833,13.833,0,0,1,1.26,3.39,22.707,22.707,0,0,1,.63,4.14A6.942,6.942,0,0,1,22.633,69.05Z" transform="translate(0 -55.109)"/></g></g><g transform="translate(3.103 58.1)"><g transform="translate(0 0)"><path d="M47.553,97.081a1.823,1.823,0,0,0-1.08-.51,1.707,1.707,0,0,0-.48-1.05l-.03-.03a1.7,1.7,0,0,0-1.23-.51,1.771,1.771,0,0,0-1.23.51,1.744,1.744,0,0,0-.51,1.08,1.787,1.787,0,0,0-1.08.48l-.03.03a1.7,1.7,0,0,0-.51,1.23,1.771,1.771,0,0,0,.51,1.23,1.673,1.673,0,0,0,1.11.51,1.6,1.6,0,0,0,.51,1.08,1.7,1.7,0,0,0,1.23.51,1.771,1.771,0,0,0,1.23-.51,1.823,1.823,0,0,0,.51-1.08,1.6,1.6,0,0,0,1.08-.51,1.7,1.7,0,0,0,.51-1.23A1.771,1.771,0,0,0,47.553,97.081Zm-.75,1.68a.611.611,0,0,1-.45.18h-.42a.57.57,0,0,0-.57.57v.39a.63.63,0,1,1-1.26,0v-.42a.57.57,0,0,0-.57-.57h-.42a.615.615,0,0,1-.45-1.05l.03-.03a.717.717,0,0,1,.42-.15h.42a.57.57,0,0,0,.57-.57v-.42a.636.636,0,0,1,1.08-.45l.03.03a.717.717,0,0,1,.15.42v.42a.57.57,0,0,0,.57.57h.42a.636.636,0,0,1,.45,1.08Z" transform="translate(-41.373 -94.981)"/></g></g><g transform="translate(16.213 58.25)"><g transform="translate(0 0)"><circle cx="1.05" cy="1.05" r="1.05"/></g></g><g transform="translate(16.213 62.51)"><g transform="translate(0 0)"><circle cx="1.05" cy="1.05" r="1.05"/></g></g><g transform="translate(14.083 60.38)"><g transform="translate(0 0)"><circle cx="1.05" cy="1.05" r="1.05"/></g></g><g transform="translate(18.343 60.38)"><g transform="translate(0 0)"><circle cx="1.05" cy="1.05" r="1.05"/></g></g></g></svg>