<svg xmlns="http://www.w3.org/2000/svg" width="28.622" height="16" viewBox="0 0 28.622 16"><g transform="translate(0 -112.894)"><g transform="translate(0 112.894)"><path d="M27.2,117.273h-.569V115.16a2.268,2.268,0,0,0-2.266-2.266H16.158a2.264,2.264,0,0,0-1.847.955,2.264,2.264,0,0,0-1.847-.955H7.306a.419.419,0,0,0,0,.839h5.159a1.429,1.429,0,0,1,1.427,1.427v4.193l-.027-.025a2.742,2.742,0,0,0-1.85-.73H5.031a1.438,1.438,0,0,0-.95-1.246,1.393,1.393,0,0,0-.465-.079H2.826V115.16a1.429,1.429,0,0,1,1.427-1.427H5.629a.419.419,0,1,0,0-.839H4.253a2.268,2.268,0,0,0-2.266,2.266v2.113H1.419A1.42,1.42,0,0,0,0,118.692v4.378a2.957,2.957,0,0,0,2.954,2.954h.211l-.459,1.236a1.224,1.224,0,0,0,1.136,1.635h.675a1.219,1.219,0,0,0,.967-.481l1.807-2.389H21.332l1.807,2.389a1.219,1.219,0,0,0,.967.481h.674a1.224,1.224,0,0,0,1.136-1.635l-.459-1.236h.211a2.957,2.957,0,0,0,2.954-2.954v-4.378A1.42,1.42,0,0,0,27.2,117.273ZM14.73,115.16a1.429,1.429,0,0,1,1.427-1.427h8.212A1.429,1.429,0,0,1,25.8,115.16v2.113h-.789a1.452,1.452,0,0,0-1.308.871,1.41,1.41,0,0,0-.107.454H16.608a2.75,2.75,0,0,0-1.877.755V115.16Zm-9.7,4.277h6.981a1.88,1.88,0,0,1,1.877,1.877v.6H5.034Zm-.22,8.471a.376.376,0,0,1-.3.148H3.842a.377.377,0,0,1-.35-.5l.568-1.528H6.239Zm19.966.148h-.674a.376.376,0,0,1-.3-.148l-1.425-1.884h2.179l.568,1.528A.377.377,0,0,1,24.781,128.055Zm.888-2.87H2.954a2.118,2.118,0,0,1-2.116-2.116v-4.378a.581.581,0,0,1,.58-.58h2.2a.581.581,0,0,1,.58.58v3.638a.419.419,0,0,0,.419.419h15.4a.419.419,0,1,0,0-.839H14.73v-.6a1.879,1.879,0,0,1,1.877-1.877h6.981v2.474h-1.9a.419.419,0,1,0,0,.839h2.316a.419.419,0,0,0,.419-.419v-3.638a.581.581,0,0,1,.58-.58h2.2a.581.581,0,0,1,.58.58v4.378h0A2.118,2.118,0,0,1,25.668,125.185Z" transform="translate(0 -112.894)"/></g></g></svg>