<svg xmlns="http://www.w3.org/2000/svg" width="22.882" height="21.983" viewBox="0 0 22.882 21.983"><g transform="translate(-5 -14.851)"><path d="M55.317,154.575h0l-4.248-5.537a.273.273,0,0,0-.217-.107H39.773a.274.274,0,0,0-.217.107l-4.248,5.537h0a.271.271,0,0,0,.023.359l9.788,9.788a.274.274,0,0,0,.387,0l9.788-9.788A.271.271,0,0,0,55.317,154.575Zm-4.8-5.1-.92,4.634-3.716-4.634Zm-1.336,4.99h-7.74l3.87-4.826Zm-4.44-4.99-3.716,4.634-.92-4.634Zm-5.12.372.917,4.618H36.079Zm-3.438,5.165H40.7l3.746,8.257Zm9.128,8.853L41.3,155.015h8.031Zm.871-.6,3.745-8.257H54.44Zm3.9-8.8L51,149.85l3.543,4.618Z" transform="translate(-28.871 -127.969)"/><path d="M134.963,18.1l1.445.21.646,1.31a.273.273,0,0,0,.49,0l.647-1.31,1.445-.21a.273.273,0,0,0,.152-.466l-1.046-1.019.247-1.439a.273.273,0,0,0-.4-.288l-1.293.68-1.293-.68a.273.273,0,0,0-.4.288l.247,1.439-1.046,1.019a.273.273,0,0,0,.152.466Zm1.379-1.195a.273.273,0,0,0,.079-.242l-.178-1.035.93.489a.273.273,0,0,0,.255,0l.93-.489-.178,1.035a.273.273,0,0,0,.079.242l.752.733-1.039.151a.274.274,0,0,0-.206.15l-.465.942-.465-.942a.274.274,0,0,0-.206-.15l-1.039-.151Z" transform="translate(-123.816 -0.001)"/><path d="M7.326,70.516a.273.273,0,0,0,.245.152h0a.273.273,0,0,0,.245-.152l.646-1.31L9.908,69a.273.273,0,0,0,.151-.466L9.014,67.511l.247-1.439a.273.273,0,0,0-.4-.288l-1.293.68-1.293-.68a.273.273,0,0,0-.4.288l.247,1.439L5.083,68.53A.273.273,0,0,0,5.234,69l1.445.21ZM6.613,67.8a.273.273,0,0,0,.079-.242l-.177-1.035.929.489a.273.273,0,0,0,.255,0l.93-.489L8.45,67.56a.273.273,0,0,0,.079.242l.752.733-1.039.151a.273.273,0,0,0-.206.15l-.465.942-.465-.942a.273.273,0,0,0-.206-.15l-1.039-.151Z" transform="translate(0 -48.581)"/><path d="M264.691,18.1l1.445.21.646,1.31a.273.273,0,0,0,.491,0l.646-1.31,1.445-.21a.273.273,0,0,0,.152-.466l-1.046-1.019.247-1.439a.274.274,0,0,0-.4-.288l-1.293.68-1.293-.68a.273.273,0,0,0-.4.288l.247,1.439-1.046,1.019a.273.273,0,0,0,.152.466ZM266.07,16.9a.273.273,0,0,0,.079-.242l-.178-1.035.93.489a.273.273,0,0,0,.254,0l.93-.489-.178,1.035a.273.273,0,0,0,.079.242l.752.733-1.039.151a.273.273,0,0,0-.206.15l-.465.942-.465-.942a.274.274,0,0,0-.206-.15l-1.039-.151Z" transform="translate(-247.631)"/><path d="M398.2,67.511l.247-1.439a.273.273,0,0,0-.4-.288l-1.293.68-1.293-.68a.274.274,0,0,0-.4.288l.247,1.439-1.046,1.019a.273.273,0,0,0,.152.466l1.445.21.646,1.31a.273.273,0,0,0,.49,0l.646-1.31L399.1,69a.273.273,0,0,0,.152-.466Zm-.772,1.175a.273.273,0,0,0-.206.15l-.465.942-.465-.942a.274.274,0,0,0-.206-.15l-1.039-.151.752-.733a.274.274,0,0,0,.079-.242l-.178-1.035.93.489a.273.273,0,0,0,.255,0l.929-.489-.177,1.035a.274.274,0,0,0,.079.242l.752.733Z" transform="translate(-371.449 -48.581)"/></g></svg>