<svg xmlns="http://www.w3.org/2000/svg" width="22" height="19.576" viewBox="0 0 22 19.576"><g transform="translate(0 -28.208)"><g transform="translate(0 28.208)"><path d="M21.673,31.884a1.385,1.385,0,0,0-1.062-.494h-.985a2.476,2.476,0,0,0-2.156-1.253h-.2v-1.5a.43.43,0,0,0-.43-.43,2.908,2.908,0,0,0-2.9,2.9v1.343a2.478,2.478,0,0,1-1.346,2.21l-1.4.724a.43.43,0,1,0,.394.764l1.4-.724a3.334,3.334,0,0,0,1.812-2.974V31.113a2.049,2.049,0,0,1,1.616-2v1.453a.43.43,0,0,0,.43.43h.633a1.618,1.618,0,0,1,1.494.991.43.43,0,0,0,.4.263h1.251a.529.529,0,0,1,.521.619l-.159.922a1.214,1.214,0,0,1-1.2,1.01h-1.94a.43.43,0,0,0-.43.43v2.1a11.5,11.5,0,0,1-.872,4.4.43.43,0,0,0-.019.273l1.057,4.042a.43.43,0,0,0,.1.188l.378.4a.172.172,0,0,1-.125.291H16.5L14.652,42.14V40.153a.43.43,0,0,0-.859,0V42.22a.429.429,0,0,0,.029.155l1.756,4.55H14.066a2.811,2.811,0,0,0-2.774-2.377h-.485l-.192-1.138a2.968,2.968,0,0,0-2.324-2.424l-.813-.172a.43.43,0,1,0-.178.841l.813.172a2.114,2.114,0,0,1,1.655,1.726l.168,1H7.288a.43.43,0,0,0,0,.859h4a1.95,1.95,0,0,1,1.9,1.517H7.218a3.9,3.9,0,0,1-3.9-3.9,4.271,4.271,0,0,1,2.321-3.81l2.5-1.29a.43.43,0,0,0-.394-.764l-2.5,1.29a5.15,5.15,0,0,0-1.72,1.432A3.337,3.337,0,0,1,5.151,36.29a.7.7,0,0,0,.335-.8.762.762,0,0,0-.73-.57H4.745a4.81,4.81,0,0,0-2.188,9.06,4.766,4.766,0,0,0,4.661,3.8H17.93a1.032,1.032,0,0,0,.746-1.744l-.3-.315-.993-3.8a12.348,12.348,0,0,0,.882-4.6V35.659h1.51a2.071,2.071,0,0,0,2.046-1.723l.159-.923A1.385,1.385,0,0,0,21.673,31.884ZM.86,39.653a3.951,3.951,0,0,1,3.457-3.846A4.2,4.2,0,0,0,2.6,39.192a4.148,4.148,0,0,0,.342,1.661,5.147,5.147,0,0,0-.476,2.056,3.971,3.971,0,0,1-1.6-3.257Z" transform="translate(0 -28.208)"/><path d="M400.372,117.791a.429.429,0,1,0-.3.126A.433.433,0,0,0,400.372,117.791Z" transform="translate(-382.467 -113.24)"/><path d="M215.288,215.717a.428.428,0,1,0-.3-.125A.433.433,0,0,0,215.288,215.717Z" transform="translate(-205.626 -206.838)"/></g></g></svg>