<svg xmlns="http://www.w3.org/2000/svg" width="20.303" height="23.625" viewBox="0 0 20.303 23.625"><path d="M-2.531-21.937a2.433,2.433,0,0,0-1.78.751,2.433,2.433,0,0,0-.751,1.78v9.967l-.554-.58-.211-.185a2.41,2.41,0,0,0-1.767-.738A2.41,2.41,0,0,0-9.36-10.2,2.41,2.41,0,0,0-10.1-8.437,2.41,2.41,0,0,0-9.36-6.671v.026L-2.452.185-2.4.211l.026.053A7.529,7.529,0,0,0-.448,1.292a6.77,6.77,0,0,0,2.294.4H3.3A6.8,6.8,0,0,0,6.763.765,6.787,6.787,0,0,0,9.281-1.753,6.8,6.8,0,0,0,10.2-5.221v-6.592a2.433,2.433,0,0,0-.751-1.78,2.433,2.433,0,0,0-1.78-.751,2.444,2.444,0,0,0-1,.237,2.485,2.485,0,0,0-.9-1.384,2.446,2.446,0,0,0-1.556-.541,2.462,2.462,0,0,0-1.687.659,2.462,2.462,0,0,0-1.687-.659A2.54,2.54,0,0,0,0-15.873v-3.533a2.433,2.433,0,0,0-.751-1.78A2.433,2.433,0,0,0-2.531-21.937Zm0,1.688a.811.811,0,0,1,.593.25.811.811,0,0,1,.25.593v9.281H0V-13.5a.811.811,0,0,1,.25-.593.811.811,0,0,1,.593-.25.811.811,0,0,1,.593.25.811.811,0,0,1,.25.593v3.375H3.375V-13.5a.811.811,0,0,1,.25-.593.811.811,0,0,1,.593-.25.811.811,0,0,1,.593.25.811.811,0,0,1,.25.593v3.375H6.829v-1.687a.811.811,0,0,1,.25-.593.811.811,0,0,1,.593-.25.811.811,0,0,1,.593.25.811.811,0,0,1,.25.593v6.592a5.1,5.1,0,0,1-.7,2.637A5.238,5.238,0,0,1,5.933-.7,5.1,5.1,0,0,1,3.3,0H1.846a5.212,5.212,0,0,1-3.19-1.107l-6.829-6.75a.836.836,0,0,1-.29-.58.836.836,0,0,1,.29-.58.836.836,0,0,1,.58-.29.836.836,0,0,1,.58.29l3.639,3.639V-19.406A.811.811,0,0,1-3.125-20,.811.811,0,0,1-2.531-20.25Z" transform="translate(10.099 21.938)" fill="#fe5600"/></svg>