<svg xmlns="http://www.w3.org/2000/svg" width="22" height="24.619" viewBox="0 0 22 24.619"><g transform="translate(-26.666)"><g transform="translate(26.666)"><g transform="translate(0)"><path d="M83.35,394.806l-3.143,2.619a.524.524,0,0,0,.67.807l3.143-2.619a.524.524,0,0,0-.67-.807Z" transform="translate(-77.4 -375.305)"/><path d="M240.524,405.333a.525.525,0,0,0-.524.524v3.667a.524.524,0,1,0,1.048,0v-3.667A.525.525,0,0,0,240.524,405.333Z" transform="translate(-229.524 -385.428)"/><path d="M31.9,352.524A.525.525,0,0,0,31.38,352H27.19a.524.524,0,0,0,0,1.048h4.19A.525.525,0,0,0,31.9,352.524Z" transform="translate(-26.666 -334.714)"/><path d="M372.714,352h-4.19a.524.524,0,0,0,0,1.048h4.19a.524.524,0,1,0,0-1.048Z" transform="translate(-351.238 -334.714)"/><path d="M339.988,397.392l-3.143-2.619a.524.524,0,1,0-.67.807l3.143,2.619a.524.524,0,0,0,.67-.807Z" transform="translate(-320.795 -375.272)"/><path d="M106.38,14.667V12.854a.5.5,0,0,0-.11-.32L101.556,6.49a.531.531,0,0,0-.414-.2h-2.1V.524A.524.524,0,1,0,98,.524V6.286H95.9a.516.516,0,0,0-.414.2l-4.714,6.045a.518.518,0,0,0-.11.325v1.807a.525.525,0,0,0,.524.524h3.2a4.763,4.763,0,0,0,4.138,3.667,4.763,4.763,0,0,0,4.138-3.667h3.2A.525.525,0,0,0,106.38,14.667ZM98.523,17.81a3.8,3.8,0,0,1-3.075-2.619H101.6A3.8,3.8,0,0,1,98.523,17.81Zm6.809-3.667H91.714v-1.11l4.447-5.7h4.725l4.447,5.7Z" transform="translate(-87.523)"/></g></g></g></svg>