<svg xmlns="http://www.w3.org/2000/svg" width="19.334" height="19.406" viewBox="0 0 19.334 19.406"><path d="M-5.985-19.406l-.158.659L-9.255-4.4l-.237,1.028h4.113l-.5,2.347L-6.117,0h5.88l.132-.686.87-4.061H3.032a6.9,6.9,0,0,0,2.979-.659A6.53,6.53,0,0,0,8.358-7.251,6.678,6.678,0,0,0,9.7-10.125a5.821,5.821,0,0,0,.026-2.4,4.485,4.485,0,0,0-.87-1.819,4.668,4.668,0,0,0-2.5-1.529,4.17,4.17,0,0,0-1.081-2.083,4.75,4.75,0,0,0-1.661-1.107,5.2,5.2,0,0,0-1.872-.343Zm1.371,1.688H1.74a3.583,3.583,0,0,1,1.266.237,2.746,2.746,0,0,1,1.055.686,2.517,2.517,0,0,1,.633,1.134,4.132,4.132,0,0,1-.026,1.793A5.055,5.055,0,0,1,2.9-10.876,5.054,5.054,0,0,1-.343-9.809H-3.981l-1,4.746h-2.4Zm2.136,1.239-.158.659L-3.744-10.89H-.765a3.055,3.055,0,0,0,1.991-.725A3.443,3.443,0,0,0,2.4-13.447h.026V-13.5a2.883,2.883,0,0,0,.053-1.094,2.079,2.079,0,0,0-.4-.962,2.275,2.275,0,0,0-.817-.672,2.328,2.328,0,0,0-1.055-.25Zm1.345,1.688H.211a.585.585,0,0,1,.5.211.81.81,0,0,1,.079.686v.026a1.558,1.558,0,0,1-.606.9,1.563,1.563,0,0,1-.949.4h-.87Zm7.541.738a2.937,2.937,0,0,1,1.16.791,3.142,3.142,0,0,1,.475,2.769A5.055,5.055,0,0,1,6.275-7.5,5.054,5.054,0,0,1,3.032-6.434H-.606l-1,4.746h-2.4l.369-1.687h.026l.132-.686.87-4.061H-.343A6.9,6.9,0,0,0,2.637-8.78a6.53,6.53,0,0,0,2.347-1.846A6.678,6.678,0,0,0,6.328-13.5q.026-.158.053-.448Z" transform="translate(9.492 19.406)" fill="#fe5800"/></svg>