<svg xmlns="http://www.w3.org/2000/svg" width="26.893" height="19.934" viewBox="0 0 26.893 19.934"><g transform="translate(0 -66.246)"><g transform="translate(0 66.246)"><path d="M26.787,82.761a3.483,3.483,0,0,0-1.975-1.931,15.4,15.4,0,0,1-4.588-3.787l.218-.134a.4.4,0,1,0-.418-.68l-.327.2q-.287-.344-.561-.693l.325-.211a.4.4,0,0,0-.435-.669l-.376.244q-.315-.425-.606-.846l.279-.173A.4.4,0,1,0,17.9,73.4l-.3.187a18.869,18.869,0,0,1-1.271-2.253,1.945,1.945,0,0,1,.334-1.978A.4.4,0,0,0,16.1,68.8a2.591,2.591,0,0,0-.627,2.43,14.219,14.219,0,0,1-2.382.461c-2.391.239-3.566-.383-4.13-.948a7.012,7.012,0,0,1-2.185-4.113A.4.4,0,0,0,6.06,66.4L.083,74.183a.4.4,0,0,0,.1.578C.294,74.834,11.389,82,14.515,83.9a17.818,17.818,0,0,0,8.651,2.277,10.227,10.227,0,0,0,2.13-.2.4.4,0,0,0,.244-.164l1.24-1.8,0,0a.4.4,0,0,0,.026-.045l0-.009a.4.4,0,0,0,.018-.045l0,0V83.9A2.02,2.02,0,0,0,26.787,82.761ZM9.544,78.178c3.054,1.952,5.143,3.271,6.211,3.92a17.818,17.818,0,0,0,8.65,2.277c.421,0,.821-.019,1.195-.056l-.628.914a13.794,13.794,0,0,1-4.725-.119,15.857,15.857,0,0,1-5.318-1.894c-2.8-1.7-12-7.636-13.95-8.894l.85-1.106c2.845,1.836,5.043,3.247,6.4,4.117a.4.4,0,0,0,.43-.672L6.378,75.2a5.261,5.261,0,0,0,.637-2.515A5.285,5.285,0,0,0,5.8,69.32a.4.4,0,1,0-.615.509,4.485,4.485,0,0,1,1.028,2.856A4.466,4.466,0,0,1,5.7,74.767c-.989-.636-2.124-1.367-3.387-2.182L6.149,67.6A8.462,8.462,0,0,0,8.4,71.3c2.03,2.03,6.14,1.03,7.356.674a20.82,20.82,0,0,0,1.174,2.033l-1.356.842a.4.4,0,1,0,.421.678l1.378-.856c.2.287.4.574.614.86l-1.077.7a.4.4,0,1,0,.435.669l1.126-.732q.268.344.545.679l-1,.615a.4.4,0,1,0,.418.68l1.107-.68a15.5,15.5,0,0,0,4.946,4.089c1.445.661,1.621,1.5,1.615,1.893a14.048,14.048,0,0,1-4.608-.14,15.858,15.858,0,0,1-5.318-1.894c-1.063-.646-3.147-1.961-6.2-3.91a.4.4,0,1,0-.43.672Z" transform="translate(0 -66.246)"/></g></g></svg>