<svg xmlns="http://www.w3.org/2000/svg" width="27" height="18.563" viewBox="0 0 27 18.563"><path d="M-13.5-18.562v1.688H2.531V-4.219H-2.663A3.349,3.349,0,0,0-3.85-6.038,3.215,3.215,0,0,0-5.906-6.75a3.215,3.215,0,0,0-2.057.712A3.349,3.349,0,0,0-9.149-4.219h-.976V-8.437h-1.687v5.906h2.663A3.349,3.349,0,0,0-7.963-.712,3.215,3.215,0,0,0-5.906,0,3.215,3.215,0,0,0-3.85-.712,3.349,3.349,0,0,0-2.663-2.531H4.351A3.349,3.349,0,0,0,5.537-.712,3.215,3.215,0,0,0,7.594,0,3.215,3.215,0,0,0,9.65-.712a3.349,3.349,0,0,0,1.187-1.819H13.5V-9.413l-.053-.132-1.872-5.643H4.219v-3.375Zm.844,3.375V-13.5h7.594v-1.687ZM4.219-13.5h6.144l1.45,4.324v4.957h-.976A3.349,3.349,0,0,0,9.65-6.038,3.215,3.215,0,0,0,7.594-6.75a3.215,3.215,0,0,0-2.057.712A3.349,3.349,0,0,0,4.351-4.219H4.219Zm-16.031,1.688v1.688H-6.75v-1.687Zm5.906,6.75a1.631,1.631,0,0,1,1.2.488,1.631,1.631,0,0,1,.488,1.2,1.631,1.631,0,0,1-.488,1.2,1.631,1.631,0,0,1-1.2.488,1.631,1.631,0,0,1-1.2-.488,1.631,1.631,0,0,1-.488-1.2,1.631,1.631,0,0,1,.488-1.2A1.631,1.631,0,0,1-5.906-5.062Zm13.5,0a1.631,1.631,0,0,1,1.2.488,1.631,1.631,0,0,1,.488,1.2,1.631,1.631,0,0,1-.488,1.2,1.631,1.631,0,0,1-1.2.488,1.631,1.631,0,0,1-1.2-.488,1.631,1.631,0,0,1-.488-1.2,1.631,1.631,0,0,1,.488-1.2A1.631,1.631,0,0,1,7.594-5.062Z" transform="translate(13.5 18.563)" fill="#fe5600"/></svg>